<svg width="8" height="8" viewBox="0 0 8 8" fill="none" xmlns="http://www.w3.org/2000/svg">
<path d="M0.708673 0.587273C0.805135 0.490841 0.935948 0.436668 1.07235 0.436668C1.20874 0.436668 1.33956 0.490841 1.43602 0.587273L4.15867 3.30993L6.88133 0.587273C6.92878 0.538144 6.98554 0.498957 7.0483 0.471998C7.11106 0.44504 7.17856 0.43085 7.24686 0.430256C7.31516 0.429663 7.38289 0.442678 7.44611 0.468542C7.50932 0.494405 7.56675 0.5326 7.61505 0.580898C7.66335 0.629195 7.70154 0.686627 7.72741 0.749844C7.75327 0.81306 7.76629 0.880795 7.76569 0.949095C7.7651 1.01739 7.75091 1.08489 7.72395 1.14765C7.69699 1.21041 7.65781 1.26717 7.60868 1.31462L4.88602 4.03728L7.60868 6.75993C7.70238 6.85695 7.75422 6.98688 7.75305 7.12175C7.75188 7.25662 7.69778 7.38564 7.60241 7.48101C7.50704 7.57638 7.37802 7.63048 7.24315 7.63165C7.10828 7.63282 6.97835 7.58098 6.88133 7.48728L4.15867 4.76462L1.43602 7.48728C1.339 7.58098 1.20907 7.63282 1.0742 7.63165C0.939326 7.63048 0.810311 7.57638 0.714939 7.48101C0.619567 7.38564 0.56547 7.25662 0.564298 7.12175C0.563126 6.98688 0.614973 6.85695 0.708673 6.75993L3.43133 4.03728L0.708673 1.31462C0.61224 1.21816 0.558067 1.08734 0.558067 0.950946C0.558067 0.814549 0.61224 0.683735 0.708673 0.587273Z" fill="#F44336"/>
</svg>
