<svg width="51" height="52" viewBox="0 0 51 52" fill="none" xmlns="http://www.w3.org/2000/svg">
<path d="M4.16872 16.5041H47.3814C47.3823 16.5042 47.383 16.5041 47.3837 16.5041C48.0084 16.5041 48.5149 15.9874 48.5149 15.3502C48.5149 14.918 48.282 14.5413 47.9372 14.3436L26.3769 0.527018C26.0088 0.291287 25.5412 0.291287 25.1731 0.527018L3.5668 14.3732C3.13999 14.6467 2.94214 15.1754 3.08162 15.6696C3.22121 16.1638 3.66454 16.5041 4.16872 16.5041ZM25.7751 2.86679L43.4545 14.1964H8.09564L25.7751 2.86679Z" fill="black"/>
<path d="M49.6439 43.2733H48.5127V39.8118C48.5127 39.1746 48.0061 38.6579 47.3815 38.6579H46.2503V21.1195H47.3815C48.0061 21.1195 48.5127 20.6028 48.5127 19.9656C48.5127 19.3285 48.0061 18.8118 47.3815 18.8118H4.16881C3.54415 18.8118 3.03759 19.3285 3.03759 19.9656C3.03759 20.6028 3.54415 21.1195 4.16881 21.1195H5.30003V38.6579H4.16881C3.54415 38.6579 3.03759 39.1746 3.03759 39.8118V43.2733H1.90637C1.28171 43.2733 0.775146 43.79 0.775146 44.4272V50.1964C0.775146 50.8335 1.28171 51.3502 1.90637 51.3502H49.6439C50.2686 51.3502 50.7751 50.8335 50.7751 50.1964V44.4272C50.7751 43.79 50.2686 43.2733 49.6439 43.2733ZM43.9878 38.6579H41.7254V21.1195H43.9878V38.6579ZM35.0135 38.6579V21.1195H39.4629V38.6579H35.0135ZM30.4886 38.6579V21.1195H32.7511V38.6579H30.4886ZM23.3241 38.6579V21.1195H28.2262V38.6579H23.3241ZM18.7992 38.6579V21.1195H21.0617V38.6579H18.7992ZM12.0874 38.6579V21.1195H16.5368V38.6579H12.0874ZM7.56248 21.1195H9.82492V38.6579H7.56248V21.1195ZM48.5127 49.0425H3.03759V45.581H12.1565C12.7811 45.581 13.2877 45.0643 13.2877 44.4272C13.2877 43.79 12.7811 43.2733 12.1565 43.2733H5.30003V40.9656H46.2503V43.2733H16.0153C15.3906 43.2733 14.8841 43.79 14.8841 44.4272C14.8841 45.0643 15.3906 45.581 16.0153 45.581H48.5127V49.0425Z" fill="black"/>
</svg>
