<svg width="39" height="36" viewBox="0 0 39 36" fill="none">

<path
    d="M35.567 1.39636H2.12253C1.48896 1.39636 0.881335 1.64805 0.433332 2.09605C-0.0146717 2.54406 -0.266357 3.15168 -0.266357 3.78525V27.6741C-0.266357 28.3077 -0.0146717 28.9153 0.433332 29.3633C0.881335 29.8113 1.48896 30.063 2.12253 30.063H20.0392L20.72 29.2269L21.8309 27.8653L21.7234 27.6741H2.12253V3.78525H35.567V14.0097C36.4744 14.5971 37.2811 15.3272 37.9559 16.1716V3.78525C37.9559 3.15168 37.7042 2.54406 37.2562 2.09605C36.8082 1.64805 36.2005 1.39636 35.567 1.39636V1.39636Z"
    fill="#0B0B0B"
  />
<path d="M26.0114 8.56299H5.70581V10.4741H26.0114V8.56299Z" fill="#0B0B0B" />
<path d="M18.8447 13.3408H5.70581V15.2519H18.8447V13.3408Z" fill="#0B0B0B" />
<path d="M17.6503 21.7019H5.70581V23.613H17.6503V21.7019Z" fill="#0B0B0B" />
<path
    d="M30.1442 14.8099C28.6157 14.7978 27.1191 15.247 25.85 16.0989C24.5808 16.9509 23.5982 18.1658 23.0305 19.585C22.4628 21.0042 22.3365 22.5617 22.668 24.0539C22.9995 25.546 23.7734 26.9035 24.8886 27.9488L22.5714 30.7797L23.6464 35.0916L28.0181 29.7644C29.4019 30.1735 30.8745 30.1735 32.2583 29.7644L36.63 35.0916L37.705 30.7797L35.3878 27.9488C36.503 26.9035 37.2769 25.546 37.6084 24.0539C37.9399 22.5617 37.8136 21.0042 37.2459 19.585C36.6782 18.1658 35.6956 16.9509 34.4264 16.0989C33.1573 15.247 31.6607 14.7978 30.1322 14.8099H30.1442ZM30.1442 27.5666C29.1292 27.5525 28.141 27.2386 27.3039 26.6644C26.4667 26.0902 25.8181 25.2813 25.4394 24.3395C25.0607 23.3976 24.9689 22.3649 25.1756 21.371C25.3823 20.3771 25.8781 19.4666 26.6009 18.7537C27.3236 18.0409 28.241 17.5577 29.2376 17.3648C30.2342 17.1719 31.2656 17.2779 32.2021 17.6696C33.1386 18.0613 33.9384 18.7211 34.501 19.566C35.0636 20.411 35.3638 21.4034 35.3639 22.4185C35.3513 23.7924 34.795 25.1054 33.8168 26.0701C32.8386 27.0349 31.5181 27.573 30.1442 27.5666V27.5666Z"
    fill="#0B0B0B"
  />
</svg>
