<svg width="13" height="13" viewBox="0 0 13 13" fill="none" xmlns="http://www.w3.org/2000/svg">
<path d="M11.9834 5.98809H7.58184V1.58653C7.58184 1.39197 7.50455 1.20538 7.36697 1.0678C7.2294 0.930225 7.04281 0.852936 6.84825 0.852936C6.65368 0.852936 6.46709 0.930225 6.32952 1.0678C6.19194 1.20538 6.11465 1.39197 6.11465 1.58653V5.98809H1.71309C1.51853 5.98809 1.33193 6.06538 1.19436 6.20296C1.05678 6.34054 0.979492 6.52713 0.979492 6.72169C0.979492 6.91625 1.05678 7.10284 1.19436 7.24042C1.33193 7.37799 1.51853 7.45528 1.71309 7.45528H6.11465V11.8568C6.11465 12.0514 6.19194 12.238 6.32952 12.3756C6.46709 12.5132 6.65368 12.5904 6.84825 12.5904C7.04281 12.5904 7.2294 12.5132 7.36697 12.3756C7.50455 12.238 7.58184 12.0514 7.58184 11.8568V7.45528H11.9834C12.178 7.45528 12.3646 7.37799 12.5021 7.24042C12.6397 7.10284 12.717 6.91625 12.717 6.72169C12.717 6.52713 12.6397 6.34054 12.5021 6.20296C12.3646 6.06538 12.178 5.98809 11.9834 5.98809Z" fill="#0E6FFD"/>
</svg>
