<svg width="37" height="43" viewBox="0 0 37 43" fill="none" xmlns="http://www.w3.org/2000/svg">
<g id="passport-svgrepo-com 1" clip-path="url(#clip0_26_5535)">
<g id="Group">
<path id="Vector" d="M31.8283 0H4.18542C2.06843 0 0.34613 1.7223 0.34613 3.83929V39.1607C0.34613 41.2777 2.06843 43 4.18542 43H31.8283C33.9453 43 35.6676 41.2777 35.6676 39.1607V3.83929C35.6676 1.7223 33.9453 0 31.8283 0ZM34.1318 39.1607C34.1318 40.4309 33.0984 41.4643 31.8283 41.4643H4.18542C2.91528 41.4643 1.88184 40.4309 1.88184 39.1607V3.83929C1.88184 2.56906 2.91528 1.53571 4.18542 1.53571H31.8283C33.0984 1.53571 34.1318 2.56906 34.1318 3.83929V39.1607Z" fill="black"/>
<path id="Vector_2" d="M18.0068 6.14282C12.0793 6.14282 7.25684 10.9653 7.25684 16.8928C7.25684 22.8204 12.0793 27.6428 18.0068 27.6428C23.9344 27.6428 28.7568 22.8204 28.7568 16.8928C28.7568 10.9653 23.9344 6.14282 18.0068 6.14282ZM26.3821 20.7321H23.76C23.9642 19.7706 24.093 18.7399 24.1346 17.6607H27.1889C27.0986 18.7486 26.8188 19.7835 26.3821 20.7321ZM9.63153 13.0535H12.2537C12.0495 14.0151 11.9207 15.0457 11.879 16.125H8.8248C8.91502 15.037 9.19491 14.0021 9.63153 13.0535ZM14.9354 11.5178H14.293C14.9928 9.60979 16.0455 8.23341 17.239 7.81339V16.125H13.4167C13.4638 15.0423 13.6093 14.0063 13.8349 13.0535H14.9354C15.3595 13.0535 15.7033 12.7097 15.7033 12.2857C15.7033 11.8616 15.3595 11.5178 14.9354 11.5178ZM21.7207 11.5178H18.7747V7.81339C19.9681 8.23341 21.0209 9.60979 21.7207 11.5178ZM8.8248 17.6607H11.879C11.9207 18.7399 12.0495 19.7706 12.2537 20.7321H9.63153C9.19491 19.7835 8.91502 18.7486 8.8248 17.6607ZM13.4167 17.6607H17.239V20.7321H13.8349C13.6094 19.7794 13.4638 18.7434 13.4167 17.6607ZM17.239 22.2678V25.9723C16.0455 25.5521 14.9928 24.1759 14.293 22.2678H17.239ZM18.7747 25.9723V22.2678H21.7207C21.0209 24.1759 19.9681 25.5522 18.7747 25.9723ZM18.7747 20.7321V13.0535H22.1788C22.4043 14.0063 22.5498 15.0423 22.5969 16.125H21.0783C20.6542 16.125 20.3104 16.4688 20.3104 16.8928C20.3104 17.3169 20.6542 17.6607 21.0783 17.6607H22.597C22.5499 18.7434 22.4044 19.7794 22.1789 20.7321H18.7747ZM24.1346 16.125C24.093 15.0457 23.9642 14.0151 23.76 13.0535H26.3821C26.8187 14.0021 27.0986 15.037 27.1889 16.125H24.1346ZM25.4864 11.5178H23.3523C22.9839 10.3793 22.5 9.37665 21.9266 8.55505C23.3498 9.22692 24.5744 10.2524 25.4864 11.5178ZM14.0872 8.55505C13.5137 9.37656 13.0299 10.3792 12.6614 11.5178H10.5272C11.4393 10.2524 12.6639 9.22692 14.0872 8.55505ZM10.5272 22.2678H12.6614C13.0298 23.4064 13.5137 24.409 14.0872 25.2306C12.6639 24.5587 11.4393 23.5333 10.5272 22.2678ZM21.9265 25.2306C22.5 24.4091 22.9838 23.4065 23.3522 22.2678H25.4863C24.5744 23.5333 23.3498 24.5587 21.9265 25.2306Z" fill="black"/>
<path id="Vector_3" d="M27.797 31.4822H8.02469C7.60064 31.4822 7.25684 31.826 7.25684 32.25C7.25684 32.6741 7.60064 33.0179 8.02469 33.0179H27.797C28.2211 33.0179 28.5649 32.6741 28.5649 32.25C28.5649 31.826 28.2211 31.4822 27.797 31.4822Z" fill="black"/>
<path id="Vector_4" d="M15.0314 34.5536H11.0961C10.6721 34.5536 10.3282 34.8974 10.3282 35.3214C10.3282 35.7455 10.6721 36.0893 11.0961 36.0893H15.0314C15.4554 36.0893 15.7992 35.7455 15.7992 35.3214C15.7992 34.8974 15.4554 34.5536 15.0314 34.5536Z" fill="black"/>
<path id="Vector_5" d="M24.9176 34.5536H18.0069C17.5828 34.5536 17.239 34.8974 17.239 35.3214C17.239 35.7455 17.5828 36.0893 18.0069 36.0893H24.9176C25.3416 36.0893 25.6854 35.7455 25.6854 35.3214C25.6854 34.8974 25.3416 34.5536 24.9176 34.5536Z" fill="black"/>
</g>
</g>
<defs>
<clipPath id="clip0_26_5535">
<rect width="36" height="43" fill="white" transform="translate(0.168945)"/>
</clipPath>
</defs>
</svg>
