<svg width="33" height="33" viewBox="0 0 33 33" fill="none" xmlns="http://www.w3.org/2000/svg">
<path d="M21.9834 15.9881H17.5818V11.5865C17.5818 11.392 17.5045 11.2054 17.367 11.0678C17.2294 10.9302 17.0428 10.8529 16.8482 10.8529C16.6537 10.8529 16.4671 10.9302 16.3295 11.0678C16.1919 11.2054 16.1147 11.392 16.1147 11.5865V15.9881H11.7131C11.5185 15.9881 11.3319 16.0654 11.1944 16.203C11.0568 16.3405 10.9795 16.5271 10.9795 16.7217C10.9795 16.9163 11.0568 17.1028 11.1944 17.2404C11.3319 17.378 11.5185 17.4553 11.7131 17.4553H16.1147V21.8568C16.1147 22.0514 16.1919 22.238 16.3295 22.3756C16.4671 22.5132 16.6537 22.5904 16.8482 22.5904C17.0428 22.5904 17.2294 22.5132 17.367 22.3756C17.5045 22.238 17.5818 22.0514 17.5818 21.8568V17.4553H21.9834C22.178 17.4553 22.3646 17.378 22.5021 17.2404C22.6397 17.1028 22.717 16.9163 22.717 16.7217C22.717 16.5271 22.6397 16.3405 22.5021 16.203C22.3646 16.0654 22.178 15.9881 21.9834 15.9881Z" fill="#0E6FFD"/>
<rect x="1.34827" y="1.22168" width="31" height="31" rx="15.5" stroke="#0E6FFD"/>
</svg>
