<svg width="63" height="46" viewBox="0 0 63 46" fill="none" xmlns="http://www.w3.org/2000/svg">
<path d="M57.2837 0.707275H5.55137C2.72056 0.707275 0.41748 3.01036 0.41748 5.84104V10.6804V14.3637V19.1812V22.8645V40.9607C0.41748 43.7915 2.72056 46.0945 5.55137 46.0945H57.2838C60.1146 46.0945 62.4176 43.7915 62.4176 40.9607V22.8646V19.1813V14.3639V10.6806V5.84104C62.4175 3.01036 60.1144 0.707275 57.2837 0.707275ZM58.7342 40.9607C58.7342 41.7605 58.0834 42.4111 57.2838 42.4111H5.55137C4.75155 42.4111 4.10091 41.7604 4.10091 40.9607V22.8646H58.7343V40.9607H58.7342ZM58.7342 19.1813H4.10079V14.3639H58.7342V19.1813V19.1813ZM58.7342 10.6806H4.10079V5.84104C4.10079 5.04122 4.75155 4.39058 5.55125 4.39058H57.2837C58.0835 4.39058 58.7341 5.04134 58.7341 5.84104V10.6806H58.7342Z" fill="#0E6FFD"/>
</svg>
