<svg width="0" height="0" class="hidden">
  <symbol xmlns="http://www.w3.org/2000/svg" viewBox="0 0 17 12" id="icon-arrow-down">
    <path d="M16.2797 3.16608L7.54831 11.4373C6.90174 12.05 5.85291 12.05 5.20573 11.4373L0.698549 7.16703C0.051737 6.55438 0.051737 5.56063 0.698549 4.94786C1.34548 4.33498 2.39423 4.33498 3.04088 4.94763L6.37737 8.10855L13.937 0.946794C14.5839 0.333909 15.6327 0.334374 16.2794 0.946794C16.9261 1.55956 16.9261 2.55296 16.2797 3.16608Z" />
  </symbol>
  <symbol xmlns="http://www.w3.org/2000/svg" viewBox="0 0 51 52" id="icon-bank-statement">
    <path d="M4.16872 16.5041H47.3814C47.3823 16.5042 47.383 16.5041 47.3837 16.5041C48.0084 16.5041 48.5149 15.9874 48.5149 15.3502C48.5149 14.918 48.282 14.5413 47.9372 14.3436L26.3769 0.527018C26.0088 0.291287 25.5412 0.291287 25.1731 0.527018L3.5668 14.3732C3.13999 14.6467 2.94214 15.1754 3.08162 15.6696C3.22121 16.1638 3.66454 16.5041 4.16872 16.5041ZM25.7751 2.86679L43.4545 14.1964H8.09564L25.7751 2.86679Z" />
    <path
         d="M49.6439 43.2733H48.5127V39.8118C48.5127 39.1746 48.0061 38.6579 47.3815 38.6579H46.2503V21.1195H47.3815C48.0061 21.1195 48.5127 20.6028 48.5127 19.9656C48.5127 19.3285 48.0061 18.8118 47.3815 18.8118H4.16881C3.54415 18.8118 3.03759 19.3285 3.03759 19.9656C3.03759 20.6028 3.54415 21.1195 4.16881 21.1195H5.30003V38.6579H4.16881C3.54415 38.6579 3.03759 39.1746 3.03759 39.8118V43.2733H1.90637C1.28171 43.2733 0.775146 43.79 0.775146 44.4272V50.1964C0.775146 50.8335 1.28171 51.3502 1.90637 51.3502H49.6439C50.2686 51.3502 50.7751 50.8335 50.7751 50.1964V44.4272C50.7751 43.79 50.2686 43.2733 49.6439 43.2733ZM43.9878 38.6579H41.7254V21.1195H43.9878V38.6579ZM35.0135 38.6579V21.1195H39.4629V38.6579H35.0135ZM30.4886 38.6579V21.1195H32.7511V38.6579H30.4886ZM23.3241 38.6579V21.1195H28.2262V38.6579H23.3241ZM18.7992 38.6579V21.1195H21.0617V38.6579H18.7992ZM12.0874 38.6579V21.1195H16.5368V38.6579H12.0874ZM7.56248 21.1195H9.82492V38.6579H7.56248V21.1195ZM48.5127 49.0425H3.03759V45.581H12.1565C12.7811 45.581 13.2877 45.0643 13.2877 44.4272C13.2877 43.79 12.7811 43.2733 12.1565 43.2733H5.30003V40.9656H46.2503V43.2733H16.0153C15.3906 43.2733 14.8841 43.79 14.8841 44.4272C14.8841 45.0643 15.3906 45.581 16.0153 45.581H48.5127V49.0425Z"
      />
  </symbol>
  <symbol xmlns="http://www.w3.org/2000/svg" viewBox="0 0 25 23" id="icon-camera">
    <path
         d="M15.6581 0.23584C16.4345 0.23584 17.1561 0.63613 17.567 1.29485L19.0881 3.73279H21.457C23.252 3.73279 24.707 5.18787 24.707 6.98279V19.4828C24.707 21.2777 23.252 22.7328 21.457 22.7328H3.95703C2.16211 22.7328 0.707031 21.2777 0.707031 19.4828V6.98279C0.707031 5.18787 2.16211 3.73279 3.95703 3.73279H6.52554L7.90812 1.3549C8.31093 0.662095 9.05184 0.23584 9.85323 0.23584H15.6581ZM12.707 7.23548C9.66947 7.23548 7.20703 9.69791 7.20703 12.7355C7.20703 15.773 9.66947 18.2355 12.707 18.2355C15.7446 18.2355 18.207 15.773 18.207 12.7355C18.207 9.69791 15.7446 7.23548 12.707 7.23548ZM12.707 8.73548C14.9162 8.73548 16.707 10.5263 16.707 12.7355C16.707 14.9446 14.9162 16.7355 12.707 16.7355C10.4979 16.7355 8.70703 14.9446 8.70703 12.7355C8.70703 10.5263 10.4979 8.73548 12.707 8.73548Z"
      />
  </symbol>
  <symbol xmlns="http://www.w3.org/2000/svg" viewBox="0 0 39 36" id="icon-driving-license">
    <g clip-path="url(#clip0_26_5452)">
      <path d="M35.567 1.39636H2.12253C1.48896 1.39636 0.881335 1.64805 0.433332 2.09605C-0.0146717 2.54406 -0.266357 3.15168 -0.266357 3.78525V27.6741C-0.266357 28.3077 -0.0146717 28.9153 0.433332 29.3633C0.881335 29.8113 1.48896 30.063 2.12253 30.063H20.0392L20.72 29.2269L21.8309 27.8652L21.7234 27.6741H2.12253V3.78525H35.567V14.0097C36.4744 14.5971 37.2811 15.3272 37.9559 16.1716V3.78525C37.9559 3.15168 37.7042 2.54406 37.2562 2.09605C36.8082 1.64805 36.2005 1.39636 35.567 1.39636Z" />
      <path d="M26.0114 8.56299H5.70581V10.4741H26.0114V8.56299Z" />
      <path d="M18.8447 13.3408H5.70581V15.2519H18.8447V13.3408Z" />
      <path d="M17.6503 21.7019H5.70581V23.613H17.6503V21.7019Z" />
      <path
            d="M30.1442 14.8099C28.6157 14.7978 27.1191 15.247 25.85 16.099C24.5808 16.9509 23.5982 18.1658 23.0305 19.585C22.4628 21.0042 22.3365 22.5617 22.668 24.0539C22.9995 25.546 23.7734 26.9035 24.8886 27.9488L22.5714 30.7797L23.6464 35.0916L28.0181 29.7644C29.4019 30.1735 30.8745 30.1735 32.2583 29.7644L36.63 35.0916L37.705 30.7797L35.3878 27.9488C36.503 26.9035 37.2769 25.546 37.6084 24.0539C37.9399 22.5617 37.8136 21.0042 37.2459 19.585C36.6782 18.1658 35.6956 16.9509 34.4264 16.099C33.1573 15.247 31.6607 14.7978 30.1322 14.8099H30.1442ZM30.1442 27.5666C29.1292 27.5525 28.141 27.2386 27.3039 26.6644C26.4667 26.0902 25.8181 25.2813 25.4394 24.3395C25.0607 23.3976 24.9689 22.3649 25.1756 21.371C25.3823 20.3771 25.8781 19.4666 26.6009 18.7537C27.3236 18.0409 28.241 17.5577 29.2376 17.3648C30.2342 17.1719 31.2656 17.2779 32.2021 17.6696C33.1386 18.0613 33.9384 18.7211 34.501 19.566C35.0636 20.411 35.3638 21.4034 35.3639 22.4185C35.3513 23.7924 34.795 25.1054 33.8168 26.0701C32.8386 27.0349 31.5181 27.573 30.1442 27.5666Z"
         />
    </g>
    <defs>
      <clipPath id="clip0_26_5452">
        <rect width="38" height="35" fill="white" transform="translate(0.168945 0.645935)" />
      </clipPath>
    </defs>
  </symbol>
  <symbol xmlns="http://www.w3.org/2000/svg" viewBox="0 0 49 37" id="icon-id-card">
    <g clip-path="url(#clip0_26_5466)">
      <path
            d="M44.5003 5.9544H28.4164L29.2018 0.612241C29.2302 0.419832 29.1655 0.225745 29.0246 0.0796958C28.8837 -0.066353 28.68 -0.150085 28.466 -0.150085H20.5479C20.3339 -0.150085 20.1303 -0.066353 19.9893 0.0796958C19.8484 0.225745 19.7838 0.419832 19.8121 0.612241L20.5972 5.9544H4.51331C2.4667 5.9544 0.801697 7.46453 0.801697 9.32075V33.3792C0.801697 35.2355 2.4667 36.7456 4.51331 36.7456H15.5989C16.0088 36.7456 16.3412 36.4443 16.3412 36.0723C16.3412 35.7003 16.0089 35.399 15.5989 35.399H4.51331C3.28527 35.399 2.28632 34.4929 2.28632 33.3792V9.32075C2.28632 8.20703 3.28527 7.30092 4.51331 7.30092H20.7951L20.9995 8.69154C21.0487 9.02605 21.3632 9.27582 21.7353 9.27582H27.278C27.6501 9.27582 27.9647 9.02596 28.0138 8.69154L28.2183 7.30092H44.5002C45.7282 7.30092 46.7271 8.20703 46.7271 9.32075V33.3792C46.7271 34.4929 45.7282 35.399 44.5002 35.399H19.1621C18.7521 35.399 18.4197 35.7003 18.4197 36.0723C18.4197 36.4443 18.752 36.7456 19.1621 36.7456H44.5003C46.547 36.7456 48.212 35.2355 48.212 33.3792V9.32075C48.212 7.46453 46.5469 5.9544 44.5003 5.9544ZM26.6282 7.9293H22.3854L21.3955 1.19652H27.6179L26.6282 7.9293Z"
         />
      <path
            d="M16.4897 19.9585H16.2103C17.7533 19.2583 18.8156 17.8115 18.8156 16.1433C18.8156 13.7921 16.7065 11.8792 14.1143 11.8792C11.522 11.8792 9.41286 13.7921 9.41286 16.1433C9.41286 17.8115 10.4753 19.2583 12.0183 19.9585H11.7388C9.69214 19.9585 8.02722 21.4686 8.02722 23.3249V29.0701C8.02722 29.442 8.35956 29.7434 8.76958 29.7434H19.4591C19.869 29.7434 20.2015 29.4421 20.2015 29.0701V23.3249C20.2013 21.4686 18.5363 19.9585 16.4897 19.9585ZM10.8974 16.1433C10.8974 14.5345 12.3404 13.2257 14.1142 13.2257C15.8879 13.2257 17.3309 14.5345 17.3309 16.1433C17.3309 17.7521 15.8879 19.0608 14.1142 19.0608C12.3405 19.0608 10.8974 17.7521 10.8974 16.1433ZM18.7167 28.3969H9.51176V23.3249C9.51176 22.2111 10.5107 21.305 11.7387 21.305H16.4897C17.7177 21.305 18.7167 22.2111 18.7167 23.3249V28.3969V28.3969Z"
         />
      <path d="M40.4422 14.9314H23.814C23.4041 14.9314 23.0717 15.2327 23.0717 15.6047C23.0717 15.9766 23.404 16.278 23.814 16.278H40.4422C40.8522 16.278 41.1846 15.9767 41.1846 15.6047C41.1846 15.2327 40.8522 14.9314 40.4422 14.9314Z" />
      <path d="M40.4422 12.0587H35.9883C35.5783 12.0587 35.2459 12.3601 35.2459 12.732C35.2459 13.1039 35.5782 13.4053 35.9883 13.4053H40.4422C40.8522 13.4053 41.1846 13.104 41.1846 12.732C41.1846 12.3601 40.8522 12.0587 40.4422 12.0587Z" />
      <path d="M33.0189 12.0587H23.814C23.4041 12.0587 23.0717 12.3601 23.0717 12.732C23.0717 13.1039 23.404 13.4053 23.814 13.4053H33.0189C33.4288 13.4053 33.7613 13.104 33.7613 12.732C33.7613 12.3601 33.4288 12.0587 33.0189 12.0587Z" />
      <path d="M40.4422 31.6287H8.7694C8.35947 31.6287 8.02704 31.93 8.02704 32.302C8.02704 32.6738 8.35937 32.9753 8.7694 32.9753H40.4422C40.8522 32.9753 41.1846 32.6739 41.1846 32.302C41.1846 31.93 40.8522 31.6287 40.4422 31.6287Z" />
      <path d="M32.2271 18.3427C28.7615 18.3427 25.942 20.8999 25.942 24.0431C25.942 27.1863 28.7614 29.7435 32.2271 29.7435C35.6927 29.7435 38.5122 27.1864 38.5122 24.0431C38.5121 20.8998 35.6927 18.3427 32.2271 18.3427ZM32.2271 28.3969C29.5802 28.3969 27.4267 26.4438 27.4267 24.0431C27.4267 21.6424 29.5802 19.6893 32.2271 19.6893C34.874 19.6893 37.0275 21.6424 37.0275 24.0431C37.0275 26.4438 34.874 28.3969 32.2271 28.3969Z" />
      <path d="M35.5572 22.3429C35.2872 22.063 34.8183 22.0347 34.5098 22.2795L31.8934 24.3559L30.6015 23.054C30.3272 22.7776 29.8577 22.7553 29.5531 23.004C29.2483 23.2528 29.2236 23.6785 29.4979 23.9549L31.2795 25.7503C31.426 25.8979 31.6283 25.9731 31.8314 25.9731C32.0051 25.9731 32.1793 25.9183 32.3201 25.8066L35.4874 23.293C35.7959 23.048 35.8272 22.6227 35.5572 22.3429Z" />
    </g>
    <defs>
      <clipPath id="clip0_26_5466">
        <rect width="48" height="36" fill="white" transform="translate(0.168945 0.599243)" />
      </clipPath>
    </defs>
  </symbol>
  <symbol xmlns="http://www.w3.org/2000/svg" viewBox="0 0 7 14" id="icon-info">
    <path
         d="M6.5469 12.2698L6.36526 13.0123C5.82034 13.2274 5.38505 13.3911 5.06092 13.5036C4.73643 13.6165 4.3594 13.6727 3.92982 13.6727C3.27013 13.6727 2.75702 13.5111 2.39106 13.1901C2.02509 12.8678 1.84205 12.4594 1.84205 11.964C1.84205 11.7723 1.85534 11.575 1.88295 11.374C1.9108 11.1728 1.95507 10.9462 2.01566 10.6929L2.69667 8.2825C2.75725 8.05169 2.80875 7.833 2.84999 7.62619C2.89182 7.42066 2.91198 7.23156 2.91198 7.06134C2.91198 6.75352 2.84825 6.53821 2.72137 6.41715C2.59448 6.29644 2.35237 6.23516 1.99294 6.23516C1.81689 6.23516 1.63595 6.26335 1.45151 6.31788C1.26625 6.37264 1.10792 6.42554 0.974976 6.47471L1.15708 5.7316C1.60321 5.54995 2.02964 5.39441 2.43754 5.26532C2.84545 5.13587 3.23087 5.07109 3.59543 5.07109C4.25058 5.07109 4.75612 5.22943 5.11113 5.54611C5.46614 5.86302 5.64359 6.27384 5.64359 6.78008C5.64359 6.88483 5.63194 7.06938 5.60689 7.33316C5.58242 7.59753 5.53687 7.83975 5.47045 8.06008L4.79236 10.4608C4.73678 10.6536 4.6868 10.8741 4.64334 11.1221C4.59848 11.3685 4.57704 11.5568 4.57704 11.6831C4.57704 12.0019 4.64812 12.2195 4.79061 12.3352C4.93415 12.4509 5.18139 12.5085 5.53255 12.5085C5.69742 12.5085 5.885 12.4792 6.09344 12.4218C6.3013 12.3644 6.45288 12.3139 6.5469 12.2698ZM6.71887 2.19081C6.71887 2.60909 6.56123 2.96631 6.24444 3.26004C5.92846 3.55481 5.5477 3.70232 5.10228 3.70232C4.65546 3.70232 4.27376 3.55481 3.95417 3.26004C3.63517 2.9662 3.47531 2.60909 3.47531 2.19081C3.47531 1.77335 3.63517 1.41555 3.95417 1.11809C4.27318 0.821104 4.65557 0.672668 5.10228 0.672668C5.54758 0.672668 5.92846 0.821454 6.24444 1.11809C6.56147 1.41555 6.71887 1.77347 6.71887 2.19081Z"
      />
  </symbol>
  <symbol xmlns="http://www.w3.org/2000/svg" viewBox="0 0 54 55" id="icon-local-tax">
    <path
         d="M27.2751 12.1627H30.5876C31.0269 12.1627 31.4482 11.9849 31.7588 11.6685C32.0694 11.352 32.2439 10.9228 32.2439 10.4752C32.2439 10.0277 32.0694 9.59844 31.7588 9.28198C31.4482 8.96551 31.0269 8.78772 30.5876 8.78772H28.9314C28.9314 8.34017 28.7569 7.91094 28.4463 7.59448C28.1357 7.27801 27.7144 7.10022 27.2751 7.10022C26.8359 7.10022 26.4146 7.27801 26.104 7.59448C25.7934 7.91094 25.6189 8.34017 25.6189 8.78772V9.09147C24.5235 9.49643 23.6026 10.2808 23.0173 11.3074C22.432 12.334 22.2194 13.5375 22.4167 14.7077C22.614 15.8778 23.2087 16.94 24.0968 17.7087C24.9849 18.4773 26.1099 18.9035 27.2751 18.9127C27.7144 18.9127 28.1357 19.0905 28.4463 19.407C28.7569 19.7234 28.9314 20.1527 28.9314 20.6002C28.9314 21.0478 28.7569 21.477 28.4463 21.7935C28.1357 22.1099 27.7144 22.2877 27.2751 22.2877H23.9626C23.5234 22.2877 23.1021 22.4655 22.7915 22.782C22.4809 23.0984 22.3064 23.5277 22.3064 23.9752C22.3064 24.4228 22.4809 24.852 22.7915 25.1685C23.1021 25.4849 23.5234 25.6627 23.9626 25.6627H25.6189C25.6189 26.1103 25.7934 26.5395 26.104 26.856C26.4146 27.1724 26.8359 27.3502 27.2751 27.3502C27.7144 27.3502 28.1357 27.1724 28.4463 26.856C28.7569 26.5395 28.9314 26.1103 28.9314 25.6627V25.359C30.0268 24.954 30.9476 24.1697 31.533 23.1431C32.1183 22.1165 32.3309 20.9129 32.1336 19.7428C31.9363 18.5727 31.3416 17.5104 30.4535 16.7418C29.5654 15.9731 28.4404 15.5469 27.2751 15.5377C26.8359 15.5377 26.4146 15.3599 26.104 15.0435C25.7934 14.727 25.6189 14.2978 25.6189 13.8502C25.6189 13.4027 25.7934 12.9734 26.104 12.657C26.4146 12.3405 26.8359 12.1627 27.2751 12.1627V12.1627Z"
      />
    <path
         d="M52.1189 40.8502H47.1501V5.41272C47.1501 4.07006 46.6267 2.78239 45.6948 1.83299C44.763 0.883589 43.4992 0.35022 42.1814 0.35022L5.7439 0.35022C4.4261 0.35022 3.16228 0.883589 2.23046 1.83299C1.29864 2.78239 0.775146 4.07006 0.775146 5.41272L0.775146 15.5377C0.775146 15.9853 0.949644 16.4145 1.26025 16.731C1.57086 17.0474 1.99213 17.2252 2.4314 17.2252H7.40015V49.2877C7.40015 50.6304 7.92364 51.918 8.85546 52.8674C9.78728 53.8169 11.0511 54.3502 12.3689 54.3502H48.8064C50.1242 54.3502 51.388 53.8169 52.3198 52.8674C53.2517 51.918 53.7751 50.6304 53.7751 49.2877V42.5377C53.7751 42.0902 53.6007 41.6609 53.29 41.3445C52.9794 41.028 52.5582 40.8502 52.1189 40.8502ZM4.08765 5.41272C4.08765 4.96517 4.26214 4.53594 4.57275 4.21948C4.88336 3.90301 5.30463 3.72522 5.7439 3.72522C6.18316 3.72522 6.60444 3.90301 6.91504 4.21948C7.22565 4.53594 7.40015 4.96517 7.40015 5.41272V13.8502H4.08765V5.41272ZM14.0251 42.5377V49.2877C14.0221 49.5122 13.9751 49.7338 13.8869 49.9395C13.7988 50.1452 13.6712 50.331 13.5117 50.4858C13.3649 50.6436 13.1875 50.7686 12.9908 50.8528C12.794 50.9371 12.5823 50.9788 12.3689 50.9752C11.9296 50.9752 11.5084 50.7974 11.1978 50.481C10.8871 50.1645 10.7126 49.7353 10.7126 49.2877V5.41272C10.7082 4.83704 10.6073 4.26636 10.4145 3.72522H42.1814C42.6207 3.72522 43.0419 3.90301 43.3525 4.21948C43.6632 4.53594 43.8376 4.96517 43.8376 5.41272V40.8502H15.6814C15.2421 40.8502 14.8209 41.028 14.5103 41.3445C14.1996 41.6609 14.0251 42.0902 14.0251 42.5377ZM50.4626 49.2877C50.4596 49.5122 50.4126 49.7338 50.3244 49.9395C50.2363 50.1452 50.1087 50.331 49.9492 50.4858C49.8024 50.6436 49.625 50.7686 49.4283 50.8528C49.2315 50.9371 49.0198 50.9788 48.8064 50.9752H17.0561C17.2433 50.4331 17.3385 49.8624 17.3376 49.2877V44.2252H50.4626V49.2877Z"
      />
    <path d="M28.9314 32.4127H15.6814C15.2421 32.4127 14.8209 32.5905 14.5103 32.907C14.1996 33.2234 14.0251 33.6527 14.0251 34.1002C14.0251 34.5478 14.1996 34.977 14.5103 35.2935C14.8209 35.6099 15.2421 35.7877 15.6814 35.7877H28.9314C29.3707 35.7877 29.7919 35.6099 30.1025 35.2935C30.4132 34.977 30.5876 34.5478 30.5876 34.1002C30.5876 33.6527 30.4132 33.2234 30.1025 32.907C29.7919 32.5905 29.3707 32.4127 28.9314 32.4127Z" />
    <path d="M38.8689 32.4127H35.5564C35.1171 32.4127 34.6959 32.5905 34.3852 32.907C34.0746 33.2234 33.9001 33.6527 33.9001 34.1002C33.9001 34.5478 34.0746 34.977 34.3852 35.2935C34.6959 35.6099 35.1171 35.7877 35.5564 35.7877H38.8689C39.3082 35.7877 39.7294 35.6099 40.04 35.2935C40.3507 34.977 40.5251 34.5478 40.5251 34.1002C40.5251 33.6527 40.3507 33.2234 40.04 32.907C39.7294 32.5905 39.3082 32.4127 38.8689 32.4127Z" />
  </symbol>

  <symbol xmlns="http://www.w3.org/2000/svg" viewBox="0 0 37 43" id="icon-passport">
    <g id="passport-svgrepo-com 1" clip-path="url(#clip0_26_5535)">
      <g id="Group">
        <path id="Vector" d="M31.8283 0H4.18542C2.06843 0 0.34613 1.7223 0.34613 3.83929V39.1607C0.34613 41.2777 2.06843 43 4.18542 43H31.8283C33.9453 43 35.6676 41.2777 35.6676 39.1607V3.83929C35.6676 1.7223 33.9453 0 31.8283 0ZM34.1318 39.1607C34.1318 40.4309 33.0984 41.4643 31.8283 41.4643H4.18542C2.91528 41.4643 1.88184 40.4309 1.88184 39.1607V3.83929C1.88184 2.56906 2.91528 1.53571 4.18542 1.53571H31.8283C33.0984 1.53571 34.1318 2.56906 34.1318 3.83929V39.1607Z" />
        <path
               id="Vector_2"
               d="M18.0068 6.14282C12.0793 6.14282 7.25684 10.9653 7.25684 16.8928C7.25684 22.8204 12.0793 27.6428 18.0068 27.6428C23.9344 27.6428 28.7568 22.8204 28.7568 16.8928C28.7568 10.9653 23.9344 6.14282 18.0068 6.14282ZM26.3821 20.7321H23.76C23.9642 19.7706 24.093 18.7399 24.1346 17.6607H27.1889C27.0986 18.7486 26.8188 19.7835 26.3821 20.7321ZM9.63153 13.0535H12.2537C12.0495 14.0151 11.9207 15.0457 11.879 16.125H8.8248C8.91502 15.037 9.19491 14.0021 9.63153 13.0535ZM14.9354 11.5178H14.293C14.9928 9.60979 16.0455 8.23341 17.239 7.81339V16.125H13.4167C13.4638 15.0423 13.6093 14.0063 13.8349 13.0535H14.9354C15.3595 13.0535 15.7033 12.7097 15.7033 12.2857C15.7033 11.8616 15.3595 11.5178 14.9354 11.5178ZM21.7207 11.5178H18.7747V7.81339C19.9681 8.23341 21.0209 9.60979 21.7207 11.5178ZM8.8248 17.6607H11.879C11.9207 18.7399 12.0495 19.7706 12.2537 20.7321H9.63153C9.19491 19.7835 8.91502 18.7486 8.8248 17.6607ZM13.4167 17.6607H17.239V20.7321H13.8349C13.6094 19.7794 13.4638 18.7434 13.4167 17.6607ZM17.239 22.2678V25.9723C16.0455 25.5521 14.9928 24.1759 14.293 22.2678H17.239ZM18.7747 25.9723V22.2678H21.7207C21.0209 24.1759 19.9681 25.5522 18.7747 25.9723ZM18.7747 20.7321V13.0535H22.1788C22.4043 14.0063 22.5498 15.0423 22.5969 16.125H21.0783C20.6542 16.125 20.3104 16.4688 20.3104 16.8928C20.3104 17.3169 20.6542 17.6607 21.0783 17.6607H22.597C22.5499 18.7434 22.4044 19.7794 22.1789 20.7321H18.7747ZM24.1346 16.125C24.093 15.0457 23.9642 14.0151 23.76 13.0535H26.3821C26.8187 14.0021 27.0986 15.037 27.1889 16.125H24.1346ZM25.4864 11.5178H23.3523C22.9839 10.3793 22.5 9.37665 21.9266 8.55505C23.3498 9.22692 24.5744 10.2524 25.4864 11.5178ZM14.0872 8.55505C13.5137 9.37656 13.0299 10.3792 12.6614 11.5178H10.5272C11.4393 10.2524 12.6639 9.22692 14.0872 8.55505ZM10.5272 22.2678H12.6614C13.0298 23.4064 13.5137 24.409 14.0872 25.2306C12.6639 24.5587 11.4393 23.5333 10.5272 22.2678ZM21.9265 25.2306C22.5 24.4091 22.9838 23.4065 23.3522 22.2678H25.4863C24.5744 23.5333 23.3498 24.5587 21.9265 25.2306Z"
            />
        <path id="Vector_3" d="M27.797 31.4822H8.02469C7.60064 31.4822 7.25684 31.826 7.25684 32.25C7.25684 32.6741 7.60064 33.0179 8.02469 33.0179H27.797C28.2211 33.0179 28.5649 32.6741 28.5649 32.25C28.5649 31.826 28.2211 31.4822 27.797 31.4822Z" />
        <path id="Vector_4" d="M15.0314 34.5536H11.0961C10.6721 34.5536 10.3282 34.8974 10.3282 35.3214C10.3282 35.7455 10.6721 36.0893 11.0961 36.0893H15.0314C15.4554 36.0893 15.7992 35.7455 15.7992 35.3214C15.7992 34.8974 15.4554 34.5536 15.0314 34.5536Z" />
        <path id="Vector_5" d="M24.9176 34.5536H18.0069C17.5828 34.5536 17.239 34.8974 17.239 35.3214C17.239 35.7455 17.5828 36.0893 18.0069 36.0893H24.9176C25.3416 36.0893 25.6854 35.7455 25.6854 35.3214C25.6854 34.8974 25.3416 34.5536 24.9176 34.5536Z" />
      </g>
    </g>
    <defs>
      <clipPath id="clip0_26_5535">
        <rect width="36" height="43" fill="white" transform="translate(0.168945)" />
      </clipPath>
    </defs>
  </symbol>
  <symbol xmlns="http://www.w3.org/2000/svg" viewBox="0 0 47 31" id="icon-permament">
    <g id="id-card-user-svgrepo-com 2" clip-path="url(#clip0_26_5499)">
      <g id="Group">
        <g id="Group_2">
          <path
                  id="Vector"
                  d="M42.9056 0.196905C23.4581 0.196902 23.3249 0.196905 4.10804 0.196905C2.12232 0.196905 0.506836 1.70703 0.506836 3.56325V27.6217C0.506836 29.478 2.12232 30.9881 4.10804 30.9881H14.8639C15.2616 30.9881 15.5841 30.6868 15.5841 30.3148C15.5841 29.9428 15.2617 29.6415 14.8639 29.6415H4.10804C2.91654 29.6415 1.9473 28.7354 1.9473 27.6217V3.56325C1.9473 2.44953 2.91654 1.54343 4.10804 1.54343C17.4935 1.54343 29.423 1.54343 42.9055 1.54343C44.097 1.54343 45.0662 2.44953 45.0662 3.56325V27.6217C45.0662 28.7354 44.097 29.6415 42.9055 29.6415H18.3211C17.9233 29.6415 17.6008 29.9428 17.6008 30.3148C17.6008 30.6868 17.9232 30.9881 18.3211 30.9881H42.9056C44.8914 30.9881 46.5068 29.478 46.5068 27.6217V3.56325C46.5068 1.70703 44.8914 0.196905 42.9056 0.196905Z"
               />
        </g>
      </g>
      <g id="Group_3">
        <g id="Group_4">
          <path
                  id="Vector_2"
                  d="M15.7282 14.2011H15.4571C16.9542 13.5009 17.985 12.0541 17.985 10.3859C17.985 8.03474 15.9386 6.12183 13.4234 6.12183C10.9082 6.12183 8.86188 8.03474 8.86188 10.3859C8.86188 12.0541 9.89275 13.5009 11.3898 14.2011H11.1187C9.13285 14.2011 7.51746 15.7112 7.51746 17.5675V23.3128C7.51746 23.6846 7.83991 23.9861 8.23773 23.9861H18.6093C19.007 23.9861 19.3296 23.6847 19.3296 23.3128V17.5675C19.3294 15.7112 17.7139 14.2011 15.7282 14.2011ZM10.3023 10.3859C10.3023 8.77708 11.7024 7.46835 13.4233 7.46835C15.1443 7.46835 16.5444 8.77708 16.5444 10.3859C16.5444 11.9947 15.1443 13.3034 13.4233 13.3034C11.7025 13.3034 10.3023 11.9947 10.3023 10.3859ZM17.8889 22.6395H8.95783V17.5675C8.95783 16.4538 9.92707 15.5476 11.1186 15.5476H15.7282C16.9197 15.5476 17.8889 16.4538 17.8889 17.5675V22.6395Z"
               />
        </g>
      </g>
      <g id="Group_5">
        <g id="Group_6">
          <path id="Vector_3" d="M38.9683 4.77515H22.8347C22.4369 4.77515 22.1144 5.07648 22.1144 5.44845C22.1144 5.82033 22.4368 6.12175 22.8347 6.12175H38.9683C39.366 6.12175 39.6885 5.82042 39.6885 5.44845C39.6885 5.07648 39.366 4.77515 38.9683 4.77515Z" />
        </g>
      </g>
      <g id="Group_7">
        <g id="Group_8">
          <path id="Vector_4" d="M38.9683 10.3345H22.8347C22.4369 10.3345 22.1144 10.6358 22.1144 11.0078C22.1144 11.3797 22.4368 11.6811 22.8347 11.6811H38.9683C39.366 11.6811 39.6885 11.3797 39.6885 11.0078C39.6885 10.6358 39.366 10.3345 38.9683 10.3345Z" />
        </g>
      </g>
      <g id="Group_9">
        <g id="Group_10">
          <path id="Vector_5" d="M38.9682 7.55469H34.6467C34.249 7.55469 33.9265 7.85602 33.9265 8.22799C33.9265 8.59987 34.2489 8.90129 34.6467 8.90129H38.9682C39.366 8.90129 39.6885 8.59996 39.6885 8.22799C39.6885 7.85611 39.366 7.55469 38.9682 7.55469Z" />
        </g>
      </g>
      <g id="Group_11">
        <g id="Group_12">
          <path id="Vector_6" d="M31.7658 7.55469H22.8347C22.4369 7.55469 22.1144 7.85602 22.1144 8.22799C22.1144 8.59987 22.4368 8.90129 22.8347 8.90129H31.7658C32.1635 8.90129 32.486 8.59996 32.486 8.22799C32.486 7.85611 32.1635 7.55469 31.7658 7.55469Z" />
        </g>
      </g>
      <g id="Group_13">
        <g id="Group_14">
          <path id="Vector_7" d="M38.9682 25.8712H8.23755C7.83981 25.8712 7.51727 26.1726 7.51727 26.5445C7.51727 26.9164 7.83972 27.2178 8.23755 27.2178H38.9682C39.366 27.2178 39.6885 26.9165 39.6885 26.5445C39.6885 26.1726 39.366 25.8712 38.9682 25.8712Z" />
        </g>
      </g>
      <g id="Group_15">
        <g id="Group_16">
          <path
                  id="Vector_8"
                  d="M30.2271 13.5398C27.1799 13.5398 24.7009 15.8829 24.7009 18.7629C24.7009 21.643 27.1799 23.986 30.2271 23.986C33.2742 23.986 35.7532 21.643 35.7532 18.7629C35.7532 15.8829 33.2742 13.5398 30.2271 13.5398ZM34.5325 20.6283H33.1845C33.2895 20.1611 33.3557 19.6604 33.3771 19.136H34.9472C34.9008 19.6646 34.7569 20.1674 34.5325 20.6283ZM25.9217 16.8975H27.2696C27.1646 17.3647 27.0984 17.8655 27.077 18.3898H25.507C25.5533 17.8612 25.6972 17.3584 25.9217 16.8975ZM28.6482 16.1514H28.3179C28.6777 15.2243 29.2188 14.5556 29.8323 14.3515V18.3898H27.8674C27.8917 17.8638 27.9665 17.3604 28.0824 16.8975H28.6482C28.8661 16.8975 29.0429 16.7305 29.0429 16.5244C29.0429 16.3184 28.8661 16.1514 28.6482 16.1514ZM32.1362 16.1514H30.6218V14.3515C31.2353 14.5556 31.7764 15.2243 32.1362 16.1514ZM25.507 19.136H27.077C27.0984 19.6604 27.1646 20.1611 27.2696 20.6283H25.9217C25.6972 20.1674 25.5533 19.6646 25.507 19.136ZM27.8674 19.136H29.8323V20.6283H28.0824C27.9665 20.1654 27.8917 19.662 27.8674 19.136ZM29.8323 21.3745V23.1744C29.2188 22.9702 28.6777 22.3015 28.3179 21.3745H29.8323ZM30.6218 23.1744V21.3745H32.1362C31.7764 22.3015 31.2353 22.9703 30.6218 23.1744ZM30.6218 20.6283V16.8975H32.3717C32.4876 17.3604 32.5624 17.8638 32.5866 18.3898H31.8059C31.588 18.3898 31.4112 18.5569 31.4112 18.7629C31.4112 18.969 31.588 19.136 31.8059 19.136H32.5867C32.5624 19.662 32.4876 20.1654 32.3717 20.6283H30.6218ZM33.3771 18.3898C33.3557 17.8655 33.2895 17.3647 33.1845 16.8975H34.5325C34.7569 17.3584 34.9008 17.8612 34.9472 18.3898H33.3771ZM34.072 16.1514H32.9749C32.7856 15.5982 32.5368 15.111 32.242 14.7118C32.9736 15.0383 33.6032 15.5365 34.072 16.1514ZM28.2121 14.7118C27.9173 15.111 27.6686 15.5981 27.4792 16.1514H26.3821C26.8509 15.5365 27.4805 15.0383 28.2121 14.7118ZM26.3821 21.3745H27.4792C27.6686 21.9277 27.9173 22.4148 28.2121 22.814C27.4805 22.4876 26.8509 21.9893 26.3821 21.3745ZM32.242 22.814C32.5368 22.4149 32.7855 21.9277 32.9749 21.3745H34.072C33.6032 21.9893 32.9736 22.4876 32.242 22.814Z"
               />
        </g>
      </g>
    </g>
    <defs>
      <clipPath id="clip0_26_5499">
        <rect width="46" height="30" fill="white" transform="translate(0.168945 0.513428)" />
      </clipPath>
    </defs>
  </symbol>
  <symbol xmlns="http://www.w3.org/2000/svg" viewBox="0 0 63 46" id="icon-utility-bill">
    <g clip-path="url(#clip0_21_2118)">
      <g clip-path="url(#clip1_21_2118)">
        <path
               d="M57.2837 0.707275H5.55137C2.72056 0.707275 0.41748 3.01036 0.41748 5.84104V10.6804V14.3637V19.1812V22.8645V40.9607C0.41748 43.7915 2.72056 46.0945 5.55137 46.0945H57.2838C60.1146 46.0945 62.4176 43.7915 62.4176 40.9607V22.8646V19.1813V14.3639V10.6806V5.84104C62.4175 3.01036 60.1144 0.707275 57.2837 0.707275ZM58.7342 40.9607C58.7342 41.7605 58.0834 42.4111 57.2838 42.4111H5.55137C4.75155 42.4111 4.10091 41.7604 4.10091 40.9607V22.8646H58.7343V40.9607H58.7342ZM58.7342 19.1813H4.10079V14.3639H58.7342V19.1813V19.1813ZM58.7342 10.6806H4.10079V5.84104C4.10079 5.04122 4.75155 4.39058 5.55125 4.39058H57.2837C58.0835 4.39058 58.7341 5.04134 58.7341 5.84104V10.6806H58.7342Z"
            />
        <path d="M21.7387 25.3201H7.0459V29.0034H21.7387V25.3201Z" />
        <path d="M38.7633 25.3201H24.0706V29.0034H38.7633V25.3201Z" />
        <path d="M55.789 25.3201H41.0962V29.0034H55.789V25.3201Z" />
      </g>
    </g>
    <defs>
      <clipPath id="clip0_21_2118">
        <rect width="62" height="45" fill="white" transform="translate(0.0947266 0.35022)" />
      </clipPath>
      <clipPath id="clip1_21_2118">
        <rect width="62" height="45" fill="white" transform="translate(0.189453 0.700439)" />
      </clipPath>
    </defs>
  </symbol>
  <symbol fill="none" xmlns="http://www.w3.org/2000/svg" viewBox="0 0 4 17" id="icon-warning">
    <path d="M1.93071 11.9715C1.05323 11.9715 0.342041 11.2604 0.342041 10.3828V1.9857C0.342041 1.10837 1.05338 0.397034 1.93071 0.397034C2.80789 0.397034 3.51938 1.10837 3.51938 1.9857V10.3828C3.51953 11.2604 2.80819 11.9715 1.93071 11.9715Z" fill="#FF9393" />
    <path d="M1.82876 16.397C2.58081 16.397 3.19047 15.7874 3.19047 15.0353C3.19047 14.2833 2.58081 13.6736 1.82876 13.6736C1.0767 13.6736 0.467041 14.2833 0.467041 15.0353C0.467041 15.7874 1.0767 16.397 1.82876 16.397Z" fill="#FF9393" />
  </symbol>

  <symbol fill="none" xmlns="http://www.w3.org/2000/svg" viewBox="0 0 6 14" id="icon-arrow-up"><path d="M0.5 13.0261L5.49996 13.0457" stroke="white" stroke-linecap="round" /><path
         d="M5.30572 3.87026L3.40796 1.63838V11.3727C3.40796 11.6392 3.22664 11.8525 3 11.8525C2.77336 11.8525 2.59204 11.6392 2.59204 11.3727V1.63838L0.694283 3.87026C0.615714 3.96267 0.509947 4.01242 0.407202 4.01242C0.301435 4.01242 0.19869 3.96622 0.12012 3.87026C-0.0400407 3.6819 -0.0400407 3.37982 0.12012 3.19146L2.71292 0.142158C2.78847 0.0533094 2.89423 0 3 0C3.10879 0 3.21153 0.0497554 3.28708 0.142158L5.87988 3.19146C6.04004 3.37982 6.04004 3.6819 5.87988 3.87026C5.72274 4.05507 5.46286 4.05507 5.30572 3.87026Z"
         fill="white"
      /></symbol>

    <symbol xmlns="http://www.w3.org/2000/svg" shape-rendering="geometricPrecision" text-rendering="geometricPrecision" image-rendering="optimizeQuality" clip-rule="evenodd" viewBox="0 0 502 511.82" id="pending">
    <path
         d="M279.75 471.21c14.34-1.9 25.67 12.12 20.81 25.75-2.54 6.91-8.44 11.76-15.76 12.73a260.727 260.727 0 0 1-50.81 1.54c-62.52-4.21-118.77-31.3-160.44-72.97C28.11 392.82 0 330.04 0 260.71 0 191.37 28.11 128.6 73.55 83.16S181.76 9.61 251.1 9.61c24.04 0 47.47 3.46 69.8 9.91a249.124 249.124 0 0 1 52.61 21.97l-4.95-12.96c-4.13-10.86 1.32-23.01 12.17-27.15 10.86-4.13 23.01 1.32 27.15 12.18L428.8 68.3a21.39 21.39 0 0 1 1.36 6.5c1.64 10.2-4.47 20.31-14.63 23.39l-56.03 17.14c-11.09 3.36-22.8-2.9-26.16-13.98-3.36-11.08 2.9-22.8 13.98-26.16l4.61-1.41a210.71 210.71 0 0 0-41.8-17.12c-18.57-5.36-38.37-8.24-59.03-8.24-58.62 0-111.7 23.76-150.11 62.18-38.42 38.41-62.18 91.48-62.18 150.11 0 58.62 23.76 111.69 62.18 150.11 34.81 34.81 81.66 57.59 133.77 61.55 14.9 1.13 30.23.76 44.99-1.16zm-67.09-312.63c0-10.71 8.69-19.4 19.41-19.4 10.71 0 19.4 8.69 19.4 19.4V276.7l80.85 35.54c9.8 4.31 14.24 15.75 9.93 25.55-4.31 9.79-15.75 14.24-25.55 9.93l-91.46-40.2c-7.35-2.77-12.58-9.86-12.58-18.17V158.58zm134.7 291.89c-15.62 7.99-13.54 30.9 3.29 35.93 4.87 1.38 9.72.96 14.26-1.31 12.52-6.29 24.54-13.7 35.81-22.02 5.5-4.1 8.36-10.56 7.77-17.39-1.5-15.09-18.68-22.74-30.89-13.78a208.144 208.144 0 0 1-30.24 18.57zm79.16-69.55c-8.84 13.18 1.09 30.9 16.97 30.2 6.21-.33 11.77-3.37 15.25-8.57 7.86-11.66 14.65-23.87 20.47-36.67 5.61-12.64-3.13-26.8-16.96-27.39-7.93-.26-15.11 4.17-18.41 11.4-4.93 10.85-10.66 21.15-17.32 31.03zm35.66-99.52c-.7 7.62 3 14.76 9.59 18.63 12.36 7.02 27.6-.84 29.05-14.97 1.33-14.02 1.54-27.9.58-41.95-.48-6.75-4.38-12.7-10.38-15.85-13.46-6.98-29.41 3.46-28.34 18.57.82 11.92.63 23.67-.5 35.57zM446.1 177.02c4.35 10.03 16.02 14.54 25.95 9.96 9.57-4.4 13.86-15.61 9.71-25.29-5.5-12.89-12.12-25.28-19.69-37.08-9.51-14.62-31.89-10.36-35.35 6.75-.95 5.03-.05 9.94 2.72 14.27 6.42 10.02 12 20.44 16.66 31.39z"
      />
  </symbol>
</svg>
