<svg width="38" height="37" viewBox="0 0 38 37" fill="none" xmlns="http://www.w3.org/2000/svg">
<circle cx="18.9281" cy="18.159" r="18.1349" fill="#FFEAEA"/>
<path d="M12.0862 11.2308C12.2738 11.0434 12.5281 10.938 12.7932 10.938C13.0584 10.938 13.3127 11.0434 13.5002 11.2308L18.7932 16.5238L24.0862 11.2308C24.1785 11.1353 24.2888 11.0591 24.4108 11.0067C24.5328 10.9543 24.6641 10.9267 24.7968 10.9256C24.9296 10.9244 25.0613 10.9497 25.1842 11C25.3071 11.0503 25.4187 11.1245 25.5126 11.2184C25.6065 11.3123 25.6808 11.424 25.7311 11.5469C25.7813 11.6698 25.8066 11.8014 25.8055 11.9342C25.8043 12.067 25.7768 12.1982 25.7243 12.3202C25.6719 12.4422 25.5958 12.5526 25.5002 12.6448L20.2072 17.9378L25.5002 23.2308C25.6824 23.4194 25.7832 23.672 25.7809 23.9342C25.7786 24.1964 25.6735 24.4472 25.4881 24.6326C25.3027 24.8181 25.0518 24.9232 24.7896 24.9255C24.5274 24.9278 24.2748 24.827 24.0862 24.6448L18.7932 19.3518L13.5002 24.6448C13.3116 24.827 13.059 24.9278 12.7968 24.9255C12.5346 24.9232 12.2838 24.8181 12.0984 24.6326C11.913 24.4472 11.8078 24.1964 11.8056 23.9342C11.8033 23.672 11.9041 23.4194 12.0862 23.2308L17.3792 17.9378L12.0862 12.6448C11.8988 12.4573 11.7935 12.203 11.7935 11.9378C11.7935 11.6727 11.8988 11.4184 12.0862 11.2308Z" fill="#F44336"/>
</svg>
