<svg width="54" height="55" viewBox="0 0 54 55" fill="none" xmlns="http://www.w3.org/2000/svg">
<g clip-path="url(#clip0_26_6803)">
<path d="M27.2751 12.1627H30.5876C31.0269 12.1627 31.4482 11.9849 31.7588 11.6685C32.0694 11.352 32.2439 10.9228 32.2439 10.4752C32.2439 10.0277 32.0694 9.59844 31.7588 9.28198C31.4482 8.96551 31.0269 8.78772 30.5876 8.78772H28.9314C28.9314 8.34017 28.7569 7.91094 28.4463 7.59448C28.1357 7.27801 27.7144 7.10022 27.2751 7.10022C26.8359 7.10022 26.4146 7.27801 26.104 7.59448C25.7934 7.91094 25.6189 8.34017 25.6189 8.78772V9.09147C24.5235 9.49643 23.6026 10.2808 23.0173 11.3074C22.432 12.334 22.2194 13.5375 22.4167 14.7077C22.614 15.8778 23.2087 16.94 24.0968 17.7087C24.9849 18.4773 26.1099 18.9035 27.2751 18.9127C27.7144 18.9127 28.1357 19.0905 28.4463 19.407C28.7569 19.7234 28.9314 20.1527 28.9314 20.6002C28.9314 21.0478 28.7569 21.477 28.4463 21.7935C28.1357 22.1099 27.7144 22.2877 27.2751 22.2877H23.9626C23.5234 22.2877 23.1021 22.4655 22.7915 22.782C22.4809 23.0984 22.3064 23.5277 22.3064 23.9752C22.3064 24.4228 22.4809 24.852 22.7915 25.1685C23.1021 25.4849 23.5234 25.6627 23.9626 25.6627H25.6189C25.6189 26.1103 25.7934 26.5395 26.104 26.856C26.4146 27.1724 26.8359 27.3502 27.2751 27.3502C27.7144 27.3502 28.1357 27.1724 28.4463 26.856C28.7569 26.5395 28.9314 26.1103 28.9314 25.6627V25.359C30.0268 24.954 30.9476 24.1697 31.533 23.1431C32.1183 22.1165 32.3309 20.9129 32.1336 19.7428C31.9363 18.5727 31.3416 17.5104 30.4535 16.7418C29.5654 15.9731 28.4404 15.5469 27.2751 15.5377C26.8359 15.5377 26.4146 15.3599 26.104 15.0435C25.7934 14.727 25.6189 14.2978 25.6189 13.8502C25.6189 13.4027 25.7934 12.9734 26.104 12.657C26.4146 12.3405 26.8359 12.1627 27.2751 12.1627V12.1627Z" fill="black"/>
<path d="M52.1189 40.8502H47.1501V5.41272C47.1501 4.07006 46.6267 2.78239 45.6948 1.83299C44.763 0.883589 43.4992 0.35022 42.1814 0.35022L5.7439 0.35022C4.4261 0.35022 3.16228 0.883589 2.23046 1.83299C1.29864 2.78239 0.775146 4.07006 0.775146 5.41272L0.775146 15.5377C0.775146 15.9853 0.949644 16.4145 1.26025 16.731C1.57086 17.0474 1.99213 17.2252 2.4314 17.2252H7.40015V49.2877C7.40015 50.6304 7.92364 51.918 8.85546 52.8674C9.78728 53.8169 11.0511 54.3502 12.3689 54.3502H48.8064C50.1242 54.3502 51.388 53.8169 52.3198 52.8674C53.2517 51.918 53.7751 50.6304 53.7751 49.2877V42.5377C53.7751 42.0902 53.6007 41.6609 53.29 41.3445C52.9794 41.028 52.5582 40.8502 52.1189 40.8502ZM4.08765 5.41272C4.08765 4.96517 4.26214 4.53594 4.57275 4.21948C4.88336 3.90301 5.30463 3.72522 5.7439 3.72522C6.18316 3.72522 6.60444 3.90301 6.91504 4.21948C7.22565 4.53594 7.40015 4.96517 7.40015 5.41272V13.8502H4.08765V5.41272ZM14.0251 42.5377V49.2877C14.0221 49.5122 13.9751 49.7338 13.8869 49.9395C13.7988 50.1452 13.6712 50.331 13.5117 50.4858C13.3649 50.6436 13.1875 50.7686 12.9908 50.8528C12.794 50.9371 12.5823 50.9788 12.3689 50.9752C11.9296 50.9752 11.5084 50.7974 11.1978 50.481C10.8871 50.1645 10.7126 49.7353 10.7126 49.2877V5.41272C10.7082 4.83704 10.6073 4.26636 10.4145 3.72522H42.1814C42.6207 3.72522 43.0419 3.90301 43.3525 4.21948C43.6632 4.53594 43.8376 4.96517 43.8376 5.41272V40.8502H15.6814C15.2421 40.8502 14.8209 41.028 14.5103 41.3445C14.1996 41.6609 14.0251 42.0902 14.0251 42.5377ZM50.4626 49.2877C50.4596 49.5122 50.4126 49.7338 50.3244 49.9395C50.2363 50.1452 50.1087 50.331 49.9492 50.4858C49.8024 50.6436 49.625 50.7686 49.4283 50.8528C49.2315 50.9371 49.0198 50.9788 48.8064 50.9752H17.0561C17.2433 50.4331 17.3385 49.8624 17.3376 49.2877V44.2252H50.4626V49.2877Z" fill="black"/>
<path d="M28.9314 32.4127H15.6814C15.2421 32.4127 14.8209 32.5905 14.5103 32.907C14.1996 33.2234 14.0251 33.6527 14.0251 34.1002C14.0251 34.5478 14.1996 34.977 14.5103 35.2935C14.8209 35.6099 15.2421 35.7877 15.6814 35.7877H28.9314C29.3707 35.7877 29.7919 35.6099 30.1025 35.2935C30.4132 34.977 30.5876 34.5478 30.5876 34.1002C30.5876 33.6527 30.4132 33.2234 30.1025 32.907C29.7919 32.5905 29.3707 32.4127 28.9314 32.4127Z" fill="black"/>
<path d="M38.8689 32.4127H35.5564C35.1171 32.4127 34.6959 32.5905 34.3852 32.907C34.0746 33.2234 33.9001 33.6527 33.9001 34.1002C33.9001 34.5478 34.0746 34.977 34.3852 35.2935C34.6959 35.6099 35.1171 35.7877 35.5564 35.7877H38.8689C39.3082 35.7877 39.7294 35.6099 40.04 35.2935C40.3507 34.977 40.5251 34.5478 40.5251 34.1002C40.5251 33.6527 40.3507 33.2234 40.04 32.907C39.7294 32.5905 39.3082 32.4127 38.8689 32.4127Z" fill="black"/>
</g>
<defs>
<clipPath id="clip0_26_6803">
<rect width="53" height="54" fill="white" transform="translate(0.775146 0.35022)"/>
</clipPath>
</defs>
</svg>
