<svg width="62" height="45" viewBox="0 0 62 45" fill="none" xmlns="http://www.w3.org/2000/svg">
<g clip-path="url(#clip0_26_6860)">
<path d="M57.0943 0.00683594H5.36192C2.53111 0.00683594 0.228027 2.30992 0.228027 5.14061V9.98V13.6633V18.4808V22.1641V40.2602C0.228027 43.091 2.53111 45.3941 5.36192 45.3941H57.0944C59.9252 45.3941 62.2281 43.091 62.2281 40.2602V22.1642V18.4809V13.6634V9.98012V5.14061C62.228 2.30992 59.9249 0.00683594 57.0943 0.00683594ZM58.5447 40.2602C58.5447 41.06 57.894 41.7107 57.0944 41.7107H5.36192C4.56209 41.7107 3.91146 41.0599 3.91146 40.2602V22.1642H58.5448V40.2602H58.5447ZM58.5447 18.4809H3.91134V13.6634H58.5447V18.4809ZM58.5447 9.98012H3.91134V5.14061C3.91134 4.34078 4.56209 3.69014 5.3618 3.69014H57.0943C57.8941 3.69014 58.5446 4.3409 58.5446 5.14061V9.98012H58.5447Z" fill="#0E6FFD"/>
<path d="M21.5492 24.6196H6.85645V28.3029H21.5492V24.6196Z" fill="#0E6FFD"/>
<path d="M38.5739 24.6196H23.8811V28.3029H38.5739V24.6196Z" fill="#0E6FFD"/>
<path d="M55.5995 24.6196H40.9067V28.3029H55.5995V24.6196Z" fill="#0E6FFD"/>
</g>
<defs>
<clipPath id="clip0_26_6860">
<rect width="62" height="45" fill="white"/>
</clipPath>
</defs>
</svg>
