<svg width="49" height="37" viewBox="0 0 49 37" fill="none" xmlns="http://www.w3.org/2000/svg">
<g clip-path="url(#clip0_26_5466)">
<path d="M44.5003 5.9544H28.4164L29.2018 0.612241C29.2302 0.419832 29.1655 0.225745 29.0246 0.0796958C28.8837 -0.066353 28.68 -0.150085 28.466 -0.150085H20.5479C20.3339 -0.150085 20.1303 -0.066353 19.9893 0.0796958C19.8484 0.225745 19.7838 0.419832 19.8121 0.612241L20.5972 5.9544H4.51331C2.4667 5.9544 0.801697 7.46453 0.801697 9.32075V33.3792C0.801697 35.2355 2.4667 36.7456 4.51331 36.7456H15.5989C16.0088 36.7456 16.3412 36.4443 16.3412 36.0723C16.3412 35.7003 16.0089 35.399 15.5989 35.399H4.51331C3.28527 35.399 2.28632 34.4929 2.28632 33.3792V9.32075C2.28632 8.20703 3.28527 7.30092 4.51331 7.30092H20.7951L20.9995 8.69154C21.0487 9.02605 21.3632 9.27582 21.7353 9.27582H27.278C27.6501 9.27582 27.9647 9.02596 28.0138 8.69154L28.2183 7.30092H44.5002C45.7282 7.30092 46.7271 8.20703 46.7271 9.32075V33.3792C46.7271 34.4929 45.7282 35.399 44.5002 35.399H19.1621C18.7521 35.399 18.4197 35.7003 18.4197 36.0723C18.4197 36.4443 18.752 36.7456 19.1621 36.7456H44.5003C46.547 36.7456 48.212 35.2355 48.212 33.3792V9.32075C48.212 7.46453 46.5469 5.9544 44.5003 5.9544ZM26.6282 7.9293H22.3854L21.3955 1.19652H27.6179L26.6282 7.9293Z" fill="black"/>
<path d="M16.4897 19.9585H16.2103C17.7533 19.2583 18.8156 17.8115 18.8156 16.1433C18.8156 13.7921 16.7065 11.8792 14.1143 11.8792C11.522 11.8792 9.41286 13.7921 9.41286 16.1433C9.41286 17.8115 10.4753 19.2583 12.0183 19.9585H11.7388C9.69214 19.9585 8.02722 21.4686 8.02722 23.3249V29.0701C8.02722 29.442 8.35956 29.7434 8.76958 29.7434H19.4591C19.869 29.7434 20.2015 29.4421 20.2015 29.0701V23.3249C20.2013 21.4686 18.5363 19.9585 16.4897 19.9585ZM10.8974 16.1433C10.8974 14.5345 12.3404 13.2257 14.1142 13.2257C15.8879 13.2257 17.3309 14.5345 17.3309 16.1433C17.3309 17.7521 15.8879 19.0608 14.1142 19.0608C12.3405 19.0608 10.8974 17.7521 10.8974 16.1433ZM18.7167 28.3969H9.51176V23.3249C9.51176 22.2111 10.5107 21.305 11.7387 21.305H16.4897C17.7177 21.305 18.7167 22.2111 18.7167 23.3249V28.3969V28.3969Z" fill="black"/>
<path d="M40.4422 14.9314H23.814C23.4041 14.9314 23.0717 15.2327 23.0717 15.6047C23.0717 15.9766 23.404 16.278 23.814 16.278H40.4422C40.8522 16.278 41.1846 15.9767 41.1846 15.6047C41.1846 15.2327 40.8522 14.9314 40.4422 14.9314Z" fill="black"/>
<path d="M40.4422 12.0587H35.9883C35.5783 12.0587 35.2459 12.3601 35.2459 12.732C35.2459 13.1039 35.5782 13.4053 35.9883 13.4053H40.4422C40.8522 13.4053 41.1846 13.104 41.1846 12.732C41.1846 12.3601 40.8522 12.0587 40.4422 12.0587Z" fill="black"/>
<path d="M33.0189 12.0587H23.814C23.4041 12.0587 23.0717 12.3601 23.0717 12.732C23.0717 13.1039 23.404 13.4053 23.814 13.4053H33.0189C33.4288 13.4053 33.7613 13.104 33.7613 12.732C33.7613 12.3601 33.4288 12.0587 33.0189 12.0587Z" fill="black"/>
<path d="M40.4422 31.6287H8.7694C8.35947 31.6287 8.02704 31.93 8.02704 32.302C8.02704 32.6738 8.35937 32.9753 8.7694 32.9753H40.4422C40.8522 32.9753 41.1846 32.6739 41.1846 32.302C41.1846 31.93 40.8522 31.6287 40.4422 31.6287Z" fill="black"/>
<path d="M32.2271 18.3427C28.7615 18.3427 25.942 20.8999 25.942 24.0431C25.942 27.1863 28.7614 29.7435 32.2271 29.7435C35.6927 29.7435 38.5122 27.1864 38.5122 24.0431C38.5121 20.8998 35.6927 18.3427 32.2271 18.3427ZM32.2271 28.3969C29.5802 28.3969 27.4267 26.4438 27.4267 24.0431C27.4267 21.6424 29.5802 19.6893 32.2271 19.6893C34.874 19.6893 37.0275 21.6424 37.0275 24.0431C37.0275 26.4438 34.874 28.3969 32.2271 28.3969Z" fill="black"/>
<path d="M35.5572 22.3429C35.2872 22.063 34.8183 22.0347 34.5098 22.2795L31.8934 24.3559L30.6015 23.054C30.3272 22.7776 29.8577 22.7553 29.5531 23.004C29.2483 23.2528 29.2236 23.6785 29.4979 23.9549L31.2795 25.7503C31.426 25.8979 31.6283 25.9731 31.8314 25.9731C32.0051 25.9731 32.1793 25.9183 32.3201 25.8066L35.4874 23.293C35.7959 23.048 35.8272 22.6227 35.5572 22.3429Z" fill="black"/>
</svg>
