<svg class="icon-checkbox" width="47" height="31" viewBox="0 0 47 31">

<path
    d="M42.9056 0.196905C23.4581 0.196902 23.3249 0.196905 4.10804 0.196905C2.12232 0.196905 0.506836 1.70703 0.506836 3.56325V27.6217C0.506836 29.478 2.12232 30.9881 4.10804 30.9881H14.8639C15.2616 30.9881 15.5841 30.6868 15.5841 30.3148C15.5841 29.9428 15.2617 29.6415 14.8639 29.6415H4.10804C2.91654 29.6415 1.9473 28.7354 1.9473 27.6217V3.56325C1.9473 2.44953 2.91654 1.54343 4.10804 1.54343C17.4935 1.54343 29.423 1.54343 42.9055 1.54343C44.097 1.54343 45.0662 2.44953 45.0662 3.56325V27.6217C45.0662 28.7354 44.097 29.6415 42.9055 29.6415H18.3211C17.9233 29.6415 17.6008 29.9428 17.6008 30.3148C17.6008 30.6868 17.9232 30.9881 18.3211 30.9881H42.9056C44.8914 30.9881 46.5068 29.478 46.5068 27.6217V3.56325C46.5068 1.70703 44.8914 0.196905 42.9056 0.196905Z"
  />


<path
    d="M15.7282 14.2011H15.4571C16.9542 13.5009 17.985 12.0541 17.985 10.3859C17.985 8.03474 15.9386 6.12183 13.4234 6.12183C10.9082 6.12183 8.86188 8.03474 8.86188 10.3859C8.86188 12.0541 9.89275 13.5009 11.3898 14.2011H11.1187C9.13285 14.2011 7.51746 15.7112 7.51746 17.5675V23.3128C7.51746 23.6846 7.83991 23.9861 8.23773 23.9861H18.6093C19.007 23.9861 19.3296 23.6847 19.3296 23.3128V17.5675C19.3294 15.7112 17.7139 14.2011 15.7282 14.2011ZM10.3023 10.3859C10.3023 8.77708 11.7024 7.46835 13.4233 7.46835C15.1443 7.46835 16.5444 8.77708 16.5444 10.3859C16.5444 11.9947 15.1443 13.3034 13.4233 13.3034C11.7025 13.3034 10.3023 11.9947 10.3023 10.3859ZM17.8889 22.6395H8.95783V17.5675C8.95783 16.4538 9.92707 15.5476 11.1186 15.5476H15.7282C16.9197 15.5476 17.8889 16.4538 17.8889 17.5675V22.6395V22.6395Z"
  />


<path
    d="M38.9683 4.77515H22.8347C22.4369 4.77515 22.1144 5.07648 22.1144 5.44845C22.1144 5.82033 22.4368 6.12175 22.8347 6.12175H38.9683C39.366 6.12175 39.6885 5.82042 39.6885 5.44845C39.6885 5.07648 39.366 4.77515 38.9683 4.77515Z"
  />

<path
    d="M38.9683 10.3345H22.8347C22.4369 10.3345 22.1144 10.6358 22.1144 11.0078C22.1144 11.3797 22.4368 11.6811 22.8347 11.6811H38.9683C39.366 11.6811 39.6885 11.3797 39.6885 11.0078C39.6885 10.6358 39.366 10.3345 38.9683 10.3345Z"
  />



<path
    d="M38.9682 7.55469H34.6467C34.249 7.55469 33.9265 7.85602 33.9265 8.22799C33.9265 8.59987 34.2489 8.90129 34.6467 8.90129H38.9682C39.366 8.90129 39.6885 8.59996 39.6885 8.22799C39.6885 7.85611 39.366 7.55469 38.9682 7.55469Z"
  />


<path
    d="M31.7658 7.55469H22.8347C22.4369 7.55469 22.1144 7.85602 22.1144 8.22799C22.1144 8.59987 22.4368 8.90129 22.8347 8.90129H31.7658C32.1635 8.90129 32.486 8.59996 32.486 8.22799C32.486 7.85611 32.1635 7.55469 31.7658 7.55469Z"
  
  />


<path
    d="M38.9682 25.8712H8.23755C7.83981 25.8712 7.51727 26.1726 7.51727 26.5445C7.51727 26.9164 7.83972 27.2178 8.23755 27.2178H38.9682C39.366 27.2178 39.6885 26.9165 39.6885 26.5445C39.6885 26.1726 39.366 25.8712 38.9682 25.8712Z"
   
  />

<path
    d="M30.2271 13.5398C27.1799 13.5398 24.7009 15.8829 24.7009 18.7629C24.7009 21.643 27.1799 23.986 30.2271 23.986C33.2742 23.986 35.7532 21.643 35.7532 18.7629C35.7532 15.8829 33.2742 13.5398 30.2271 13.5398ZM34.5325 20.6283H33.1845C33.2895 20.1611 33.3557 19.6604 33.3771 19.136H34.9472C34.9008 19.6646 34.7569 20.1674 34.5325 20.6283ZM25.9217 16.8975H27.2696C27.1646 17.3647 27.0984 17.8655 27.077 18.3898H25.507C25.5533 17.8612 25.6972 17.3584 25.9217 16.8975ZM28.6482 16.1514H28.3179C28.6777 15.2243 29.2188 14.5556 29.8323 14.3515V18.3898H27.8674C27.8917 17.8638 27.9665 17.3604 28.0824 16.8975H28.6482C28.8661 16.8975 29.0429 16.7305 29.0429 16.5244C29.0429 16.3184 28.8661 16.1514 28.6482 16.1514ZM32.1362 16.1514H30.6218V14.3515C31.2353 14.5556 31.7764 15.2243 32.1362 16.1514ZM25.507 19.136H27.077C27.0984 19.6604 27.1646 20.1611 27.2696 20.6283H25.9217C25.6972 20.1674 25.5533 19.6646 25.507 19.136ZM27.8674 19.136H29.8323V20.6283H28.0824C27.9665 20.1654 27.8917 19.662 27.8674 19.136ZM29.8323 21.3745V23.1744C29.2188 22.9702 28.6777 22.3015 28.3179 21.3745H29.8323V21.3745ZM30.6218 23.1744V21.3745H32.1362C31.7764 22.3015 31.2353 22.9703 30.6218 23.1744ZM30.6218 20.6283V16.8975H32.3717C32.4876 17.3604 32.5624 17.8638 32.5866 18.3898H31.8059C31.588 18.3898 31.4112 18.5569 31.4112 18.7629C31.4112 18.969 31.588 19.136 31.8059 19.136H32.5867C32.5624 19.662 32.4876 20.1654 32.3717 20.6283H30.6218ZM33.3771 18.3898C33.3557 17.8655 33.2895 17.3647 33.1845 16.8975H34.5325C34.7569 17.3584 34.9008 17.8612 34.9472 18.3898H33.3771ZM34.072 16.1514H32.9749C32.7856 15.5982 32.5368 15.111 32.242 14.7118C32.9736 15.0383 33.6032 15.5365 34.072 16.1514ZM28.2121 14.7118C27.9173 15.111 27.6686 15.5981 27.4792 16.1514H26.3821C26.8509 15.5365 27.4805 15.0383 28.2121 14.7118ZM26.3821 21.3745H27.4792C27.6686 21.9277 27.9173 22.4148 28.2121 22.814C27.4805 22.4876 26.8509 21.9893 26.3821 21.3745ZM32.242 22.814C32.5368 22.4149 32.7855 21.9277 32.9749 21.3745H34.072C33.6032 21.9893 32.9736 22.4876 32.242 22.814Z"
   
  />
</svg>
