<svg width="7" height="14" viewBox="0 0 7 14" fill="none" xmlns="http://www.w3.org/2000/svg">
<path d="M6.33322 11.8188L6.15158 12.5613C5.60665 12.7764 5.17137 12.9401 4.84723 13.0526C4.52275 13.1655 4.14572 13.2217 3.71614 13.2217C3.05645 13.2217 2.54333 13.0601 2.17737 12.7391C1.81141 12.4168 1.62837 12.0084 1.62837 11.513C1.62837 11.3213 1.64165 11.124 1.66927 10.923C1.69711 10.7218 1.74139 10.4952 1.80197 10.2419L2.48298 7.83151C2.54357 7.6007 2.59507 7.38201 2.63631 7.1752C2.67814 6.96967 2.69829 6.78058 2.69829 6.61035C2.69829 6.30253 2.63456 6.08722 2.50768 5.96616C2.3808 5.84546 2.13869 5.78417 1.77925 5.78417C1.6032 5.78417 1.42226 5.81237 1.23782 5.86689C1.05257 5.92165 0.894231 5.97455 0.761292 6.02372L0.943399 5.28061C1.38952 5.09897 1.81595 4.94342 2.22386 4.81433C2.63177 4.68488 3.01719 4.6201 3.38175 4.6201C4.03689 4.6201 4.54244 4.77844 4.89745 5.09512C5.25246 5.41203 5.42991 5.82285 5.42991 6.32909C5.42991 6.43384 5.41825 6.61839 5.3932 6.88217C5.36874 7.14654 5.32318 7.38877 5.25677 7.60909L4.57867 10.0098C4.5231 10.2026 4.47311 10.4231 4.42965 10.6711C4.3848 10.9175 4.36336 11.1058 4.36336 11.2321C4.36336 11.5509 4.43443 11.7685 4.57693 11.8842C4.72047 11.9999 4.9677 12.0575 5.31887 12.0575C5.48373 12.0575 5.67132 12.0283 5.87976 11.9708C6.08761 11.9134 6.23919 11.8629 6.33322 11.8188ZM6.50519 1.73982C6.50519 2.1581 6.34755 2.51532 6.03076 2.80905C5.71478 3.10382 5.33402 3.25133 4.88859 3.25133C4.44177 3.25133 4.06008 3.10382 3.74049 2.80905C3.42148 2.51521 3.26163 2.1581 3.26163 1.73982C3.26163 1.32236 3.42148 0.964557 3.74049 0.667103C4.0595 0.370115 4.44189 0.22168 4.88859 0.22168C5.3339 0.22168 5.71478 0.370465 6.03076 0.667103C6.34778 0.964557 6.50519 1.32248 6.50519 1.73982Z" fill="#0E6FFD"/>
</svg>
