<svg width="8" height="14" viewBox="0 0 8 14" fill="none" xmlns="http://www.w3.org/2000/svg">
<path d="M0.666428 13.4288H6.66643" stroke="white" stroke-linecap="round"/>
<path d="M5.97214 3.99527L4.07438 1.91677V10.9821C4.07438 11.2303 3.89307 11.4289 3.66643 11.4289C3.43978 11.4289 3.25847 11.2303 3.25847 10.9821V1.91677L1.36071 3.99527C1.28214 4.08132 1.17637 4.12766 1.07363 4.12766C0.967859 4.12766 0.865114 4.08463 0.786544 3.99527C0.626383 3.81985 0.626383 3.53853 0.786544 3.36311L3.37934 0.52338C3.45489 0.440637 3.56066 0.390991 3.66643 0.390991C3.77521 0.390991 3.87796 0.437327 3.95351 0.52338L6.54631 3.36311C6.70647 3.53853 6.70647 3.81985 6.54631 3.99527C6.38917 4.16737 6.12928 4.16737 5.97214 3.99527Z" fill="white"/>
</svg>
